<?xml version='1.0' encoding='utf-8'?>
<svg xmlns="http://www.w3.org/2000/svg" xmlns:xlink="http://www.w3.org/1999/xlink" id="chart-57c1f725-6cba-4e17-8f9e-c617ab0d3790" class="pygal-chart" viewBox="0 0 800 600"><!--Generated with pygal 3.0.5 (lxml) ©Kozea 2012-2016 on 2025-03-17--><!--http://pygal.org--><!--http://github.com/Kozea/pygal--><defs><style type="text/css">#chart-57c1f725-6cba-4e17-8f9e-c617ab0d3790{-webkit-user-select:none;-webkit-font-smoothing:antialiased;font-family:Consolas,"Liberation Mono",Menlo,Courier,monospace}#chart-57c1f725-6cba-4e17-8f9e-c617ab0d3790 .title{font-family:Noto Sans CJK SC;font-size:16px}#chart-57c1f725-6cba-4e17-8f9e-c617ab0d3790 .legends .legend text{font-family:Noto Sans CJK SC;font-size:14px}#chart-57c1f725-6cba-4e17-8f9e-c617ab0d3790 .axis text{font-family:Noto Sans CJK SC;font-size:10px}#chart-57c1f725-6cba-4e17-8f9e-c617ab0d3790 .axis text.major{font-family:Noto Sans CJK SC;font-size:10px}#chart-57c1f725-6cba-4e17-8f9e-c617ab0d3790 .text-overlay text.value{font-family:Noto Sans CJK SC;font-size:16px}#chart-57c1f725-6cba-4e17-8f9e-c617ab0d3790 .text-overlay text.label{font-family:Consolas,"Liberation Mono",Menlo,Courier,monospace;font-size:10px}#chart-57c1f725-6cba-4e17-8f9e-c617ab0d3790 .tooltip{font-family:Consolas,"Liberation Mono",Menlo,Courier,monospace;font-size:14px}#chart-57c1f725-6cba-4e17-8f9e-c617ab0d3790 text.no_data{font-family:Consolas,"Liberation Mono",Menlo,Courier,monospace;font-size:64px}
#chart-57c1f725-6cba-4e17-8f9e-c617ab0d3790{background-color:rgba(249,249,249,1)}#chart-57c1f725-6cba-4e17-8f9e-c617ab0d3790 path,#chart-57c1f725-6cba-4e17-8f9e-c617ab0d3790 line,#chart-57c1f725-6cba-4e17-8f9e-c617ab0d3790 rect,#chart-57c1f725-6cba-4e17-8f9e-c617ab0d3790 circle{-webkit-transition:150ms;-moz-transition:150ms;transition:150ms}#chart-57c1f725-6cba-4e17-8f9e-c617ab0d3790 .graph &gt; .background{fill:rgba(249,249,249,1)}#chart-57c1f725-6cba-4e17-8f9e-c617ab0d3790 .plot &gt; .background{fill:rgba(255,255,255,1)}#chart-57c1f725-6cba-4e17-8f9e-c617ab0d3790 .graph{fill:rgba(0,0,0,.87)}#chart-57c1f725-6cba-4e17-8f9e-c617ab0d3790 text.no_data{fill:rgba(0,0,0,1)}#chart-57c1f725-6cba-4e17-8f9e-c617ab0d3790 .title{fill:rgba(0,0,0,1)}#chart-57c1f725-6cba-4e17-8f9e-c617ab0d3790 .legends .legend text{fill:rgba(0,0,0,.87)}#chart-57c1f725-6cba-4e17-8f9e-c617ab0d3790 .legends .legend:hover text{fill:rgba(0,0,0,1)}#chart-57c1f725-6cba-4e17-8f9e-c617ab0d3790 .axis .line{stroke:rgba(0,0,0,1)}#chart-57c1f725-6cba-4e17-8f9e-c617ab0d3790 .axis .guide.line{stroke:rgba(0,0,0,.54)}#chart-57c1f725-6cba-4e17-8f9e-c617ab0d3790 .axis .major.line{stroke:rgba(0,0,0,.87)}#chart-57c1f725-6cba-4e17-8f9e-c617ab0d3790 .axis text.major{fill:rgba(0,0,0,1)}#chart-57c1f725-6cba-4e17-8f9e-c617ab0d3790 .axis.y .guides:hover .guide.line,#chart-57c1f725-6cba-4e17-8f9e-c617ab0d3790 .line-graph .axis.x .guides:hover .guide.line,#chart-57c1f725-6cba-4e17-8f9e-c617ab0d3790 .stackedline-graph .axis.x .guides:hover .guide.line,#chart-57c1f725-6cba-4e17-8f9e-c617ab0d3790 .xy-graph .axis.x .guides:hover .guide.line{stroke:rgba(0,0,0,1)}#chart-57c1f725-6cba-4e17-8f9e-c617ab0d3790 .axis .guides:hover text{fill:rgba(0,0,0,1)}#chart-57c1f725-6cba-4e17-8f9e-c617ab0d3790 .reactive{fill-opacity:.7;stroke-opacity:.8;stroke-width:1}#chart-57c1f725-6cba-4e17-8f9e-c617ab0d3790 .ci{stroke:rgba(0,0,0,.87)}#chart-57c1f725-6cba-4e17-8f9e-c617ab0d3790 .reactive.active,#chart-57c1f725-6cba-4e17-8f9e-c617ab0d3790 .active .reactive{fill-opacity:.8;stroke-opacity:.9;stroke-width:4}#chart-57c1f725-6cba-4e17-8f9e-c617ab0d3790 .ci .reactive.active{stroke-width:1.5}#chart-57c1f725-6cba-4e17-8f9e-c617ab0d3790 .series text{fill:rgba(0,0,0,1)}#chart-57c1f725-6cba-4e17-8f9e-c617ab0d3790 .tooltip rect{fill:rgba(255,255,255,1);stroke:rgba(0,0,0,1);-webkit-transition:opacity 150ms;-moz-transition:opacity 150ms;transition:opacity 150ms}#chart-57c1f725-6cba-4e17-8f9e-c617ab0d3790 .tooltip .label{fill:rgba(0,0,0,.87)}#chart-57c1f725-6cba-4e17-8f9e-c617ab0d3790 .tooltip .label{fill:rgba(0,0,0,.87)}#chart-57c1f725-6cba-4e17-8f9e-c617ab0d3790 .tooltip .legend{font-size:.8em;fill:rgba(0,0,0,.54)}#chart-57c1f725-6cba-4e17-8f9e-c617ab0d3790 .tooltip .x_label{font-size:.6em;fill:rgba(0,0,0,1)}#chart-57c1f725-6cba-4e17-8f9e-c617ab0d3790 .tooltip .xlink{font-size:.5em;text-decoration:underline}#chart-57c1f725-6cba-4e17-8f9e-c617ab0d3790 .tooltip .value{font-size:1.5em}#chart-57c1f725-6cba-4e17-8f9e-c617ab0d3790 .bound{font-size:.5em}#chart-57c1f725-6cba-4e17-8f9e-c617ab0d3790 .max-value{font-size:.75em;fill:rgba(0,0,0,.54)}#chart-57c1f725-6cba-4e17-8f9e-c617ab0d3790 .map-element{fill:rgba(255,255,255,1);stroke:rgba(0,0,0,.54) !important}#chart-57c1f725-6cba-4e17-8f9e-c617ab0d3790 .map-element .reactive{fill-opacity:inherit;stroke-opacity:inherit}#chart-57c1f725-6cba-4e17-8f9e-c617ab0d3790 .color-0,#chart-57c1f725-6cba-4e17-8f9e-c617ab0d3790 .color-0 a:visited{stroke:#F44336;fill:#F44336}#chart-57c1f725-6cba-4e17-8f9e-c617ab0d3790 .text-overlay .color-0 text{fill:black}
#chart-57c1f725-6cba-4e17-8f9e-c617ab0d3790 text.no_data{text-anchor:middle}#chart-57c1f725-6cba-4e17-8f9e-c617ab0d3790 .guide.line{fill:none}#chart-57c1f725-6cba-4e17-8f9e-c617ab0d3790 .centered{text-anchor:middle}#chart-57c1f725-6cba-4e17-8f9e-c617ab0d3790 .title{text-anchor:middle}#chart-57c1f725-6cba-4e17-8f9e-c617ab0d3790 .legends .legend text{fill-opacity:1}#chart-57c1f725-6cba-4e17-8f9e-c617ab0d3790 .axis.x text{text-anchor:middle}#chart-57c1f725-6cba-4e17-8f9e-c617ab0d3790 .axis.x:not(.web) text[transform]{text-anchor:start}#chart-57c1f725-6cba-4e17-8f9e-c617ab0d3790 .axis.x:not(.web) text[transform].backwards{text-anchor:end}#chart-57c1f725-6cba-4e17-8f9e-c617ab0d3790 .axis.y text{text-anchor:end}#chart-57c1f725-6cba-4e17-8f9e-c617ab0d3790 .axis.y text[transform].backwards{text-anchor:start}#chart-57c1f725-6cba-4e17-8f9e-c617ab0d3790 .axis.y2 text{text-anchor:start}#chart-57c1f725-6cba-4e17-8f9e-c617ab0d3790 .axis.y2 text[transform].backwards{text-anchor:end}#chart-57c1f725-6cba-4e17-8f9e-c617ab0d3790 .axis .guide.line{stroke-dasharray:4,4;stroke:black}#chart-57c1f725-6cba-4e17-8f9e-c617ab0d3790 .axis .major.guide.line{stroke-dasharray:6,6;stroke:black}#chart-57c1f725-6cba-4e17-8f9e-c617ab0d3790 .horizontal .axis.y .guide.line,#chart-57c1f725-6cba-4e17-8f9e-c617ab0d3790 .horizontal .axis.y2 .guide.line,#chart-57c1f725-6cba-4e17-8f9e-c617ab0d3790 .vertical .axis.x .guide.line{opacity:0}#chart-57c1f725-6cba-4e17-8f9e-c617ab0d3790 .horizontal .axis.always_show .guide.line,#chart-57c1f725-6cba-4e17-8f9e-c617ab0d3790 .vertical .axis.always_show .guide.line{opacity:1 !important}#chart-57c1f725-6cba-4e17-8f9e-c617ab0d3790 .axis.y .guides:hover .guide.line,#chart-57c1f725-6cba-4e17-8f9e-c617ab0d3790 .axis.y2 .guides:hover .guide.line,#chart-57c1f725-6cba-4e17-8f9e-c617ab0d3790 .axis.x .guides:hover .guide.line{opacity:1}#chart-57c1f725-6cba-4e17-8f9e-c617ab0d3790 .axis .guides:hover text{opacity:1}#chart-57c1f725-6cba-4e17-8f9e-c617ab0d3790 .nofill{fill:none}#chart-57c1f725-6cba-4e17-8f9e-c617ab0d3790 .subtle-fill{fill-opacity:.2}#chart-57c1f725-6cba-4e17-8f9e-c617ab0d3790 .dot{stroke-width:1px;fill-opacity:1;stroke-opacity:1}#chart-57c1f725-6cba-4e17-8f9e-c617ab0d3790 .dot.active{stroke-width:5px}#chart-57c1f725-6cba-4e17-8f9e-c617ab0d3790 .dot.negative{fill:transparent}#chart-57c1f725-6cba-4e17-8f9e-c617ab0d3790 text,#chart-57c1f725-6cba-4e17-8f9e-c617ab0d3790 tspan{stroke:none !important}#chart-57c1f725-6cba-4e17-8f9e-c617ab0d3790 .series text.active{opacity:1}#chart-57c1f725-6cba-4e17-8f9e-c617ab0d3790 .tooltip rect{fill-opacity:.95;stroke-width:.5}#chart-57c1f725-6cba-4e17-8f9e-c617ab0d3790 .tooltip text{fill-opacity:1}#chart-57c1f725-6cba-4e17-8f9e-c617ab0d3790 .showable{visibility:hidden}#chart-57c1f725-6cba-4e17-8f9e-c617ab0d3790 .showable.shown{visibility:visible}#chart-57c1f725-6cba-4e17-8f9e-c617ab0d3790 .gauge-background{fill:rgba(229,229,229,1);stroke:none}#chart-57c1f725-6cba-4e17-8f9e-c617ab0d3790 .bg-lines{stroke:rgba(249,249,249,1);stroke-width:2px}</style><script type="text/javascript">window.pygal = window.pygal || {};window.pygal.config = window.pygal.config || {};window.pygal.config['57c1f725-6cba-4e17-8f9e-c617ab0d3790'] = {"allow_interruptions": false, "box_mode": "extremes", "classes": ["pygal-chart"], "css": ["file://style.css", "file://graph.css"], "defs": [], "disable_xml_declaration": false, "dots_size": 2.5, "dynamic_print_values": false, "explicit_size": false, "fill": false, "force_uri_protocol": "https", "formatter": null, "half_pie": false, "height": 600, "include_x_axis": false, "inner_radius": 0, "interpolate": "cubic", "interpolation_parameters": {}, "interpolation_precision": 250, "inverse_y_axis": false, "js": ["//kozea.github.io/pygal.js/2.0.x/pygal-tooltips.min.js"], "legend_at_bottom": false, "legend_at_bottom_columns": null, "legend_box_size": 12, "logarithmic": false, "margin": 20, "margin_bottom": null, "margin_left": null, "margin_right": null, "margin_top": null, "max_scale": 16, "min_scale": 4, "missing_value_fill_truncation": "x", "no_data_text": "No data", "no_prefix": false, "order_min": null, "pretty_print": false, "print_labels": false, "print_values": false, "print_values_position": "center", "print_zeroes": true, "range": [0, 100], "rounded_bars": null, "secondary_range": null, "show_dots": true, "show_legend": true, "show_minor_x_labels": true, "show_minor_y_labels": true, "show_only_major_dots": false, "show_x_guides": false, "show_x_labels": true, "show_y_guides": true, "show_y_labels": true, "spacing": 10, "stack_from_top": false, "strict": false, "stroke": true, "stroke_style": null, "style": {"background": "rgba(249, 249, 249, 1)", "ci_colors": [], "colors": ["#F44336", "#3F51B5", "#009688", "#FFC107", "#FF5722", "#9C27B0", "#03A9F4", "#8BC34A", "#FF9800", "#E91E63", "#2196F3", "#4CAF50", "#FFEB3B", "#673AB7", "#00BCD4", "#CDDC39", "#9E9E9E", "#607D8B"], "dot_opacity": "1", "font_family": "Consolas, \"Liberation Mono\", Menlo, Courier, monospace", "foreground": "rgba(0, 0, 0, .87)", "foreground_strong": "rgba(0, 0, 0, 1)", "foreground_subtle": "rgba(0, 0, 0, .54)", "guide_stroke_color": "black", "guide_stroke_dasharray": "4,4", "label_font_family": "Noto Sans CJK SC", "label_font_size": 10, "legend_font_family": "Noto Sans CJK SC", "legend_font_size": 14, "major_guide_stroke_color": "black", "major_guide_stroke_dasharray": "6,6", "major_label_font_family": "Noto Sans CJK SC", "major_label_font_size": 10, "no_data_font_family": "Consolas, \"Liberation Mono\", Menlo, Courier, monospace", "no_data_font_size": 64, "opacity": ".7", "opacity_hover": ".8", "plot_background": "rgba(255, 255, 255, 1)", "stroke_opacity": ".8", "stroke_opacity_hover": ".9", "stroke_width": "1", "stroke_width_hover": "4", "title_font_family": "Noto Sans CJK SC", "title_font_size": 16, "tooltip_font_family": "Consolas, \"Liberation Mono\", Menlo, Courier, monospace", "tooltip_font_size": 14, "transition": "150ms", "value_background": "rgba(229, 229, 229, 1)", "value_colors": [], "value_font_family": "Noto Sans CJK SC", "value_font_size": 16, "value_label_font_family": "Consolas, \"Liberation Mono\", Menlo, Courier, monospace", "value_label_font_size": 10}, "title": "\u4e3b\u9898: \u8def\u7531\u5668\u5185\u5b58\u5229\u7528\u7387", "tooltip_border_radius": 0, "tooltip_fancy_mode": true, "truncate_label": null, "truncate_legend": null, "width": 800, "x_label_rotation": 45, "x_labels": ["15:04:03", "15:05:02", "15:06:02"], "x_labels_major": null, "x_labels_major_count": null, "x_labels_major_every": null, "x_title": null, "xrange": null, "y_label_rotation": 0, "y_labels": null, "y_labels_major": null, "y_labels_major_count": null, "y_labels_major_every": null, "y_title": null, "zero": 0, "legends": ["MEM\u5229\u7528\u7387"]}</script><script type="text/javascript" xlink:href="https://kozea.github.io/pygal.js/2.0.x/pygal-tooltips.min.js"/></defs><title>主题: 路由器内存利用率</title><g class="graph line-graph vertical"><rect x="0" y="0" width="800" height="600" class="background"/><g transform="translate(120, 46)" class="plot"><rect x="0" y="0" width="645.6588745030457" height="490.05887450304573" class="background"/><g class="axis y always_show"><g class="guides"><path d="M0.000000 480.634665 h645.658875" class="axis major line"/><text x="-5" y="484.1346653779872" class="major">0</text><title>0</title></g><g class="guides"><path d="M0.000000 433.513620 h645.658875" class="guide line"/><text x="-5" y="437.0136197526943" class="">10</text><title>10</title></g><g class="guides"><path d="M0.000000 386.392574 h645.658875" class="guide line"/><text x="-5" y="389.8925741274014" class="">20</text><title>20</title></g><g class="guides"><path d="M0.000000 339.271529 h645.658875" class="guide line"/><text x="-5" y="342.7715285021086" class="">30</text><title>30</title></g><g class="guides"><path d="M0.000000 292.150483 h645.658875" class="guide line"/><text x="-5" y="295.6504828768158" class="">40</text><title>40</title></g><g class="guides"><path d="M0.000000 245.029437 h645.658875" class="major guide line"/><text x="-5" y="248.52943725152286" class="major">50</text><title>50</title></g><g class="guides"><path d="M0.000000 197.908392 h645.658875" class="guide line"/><text x="-5" y="201.40839162623" class="">60</text><title>60</title></g><g class="guides"><path d="M0.000000 150.787346 h645.658875" class="guide line"/><text x="-5" y="154.28734600093713" class="">70</text><title>70</title></g><g class="guides"><path d="M0.000000 103.666300 h645.658875" class="guide line"/><text x="-5" y="107.16630037564425" class="">80</text><title>80</title></g><g class="guides"><path d="M0.000000 56.545255 h645.658875" class="guide line"/><text x="-5" y="60.045254750351376" class="">90</text><title>90</title></g><g class="guides"><path d="M0.000000 9.424209 h645.658875" class="major guide line"/><text x="-5" y="12.92420912505861" class="major">100</text><title>100</title></g></g><g class="axis x"><g class="guides"><path d="M12.416517 0.000000 v490.058875" class="line"/><text x="12.416516817366263" y="505.05887450304573" class="" transform="rotate(45 12.416517 505.058875)">15:04:03</text></g><g class="guides"><path d="M322.829437 0.000000 v490.058875" class="guide line"/><text x="322.82943725152285" y="505.05887450304573" class="" transform="rotate(45 322.829437 505.058875)">15:05:02</text></g><g class="guides"><path d="M633.242358 0.000000 v490.058875" class="guide line"/><text x="633.2423576856794" y="505.05887450304573" class="" transform="rotate(45 633.242358 505.058875)">15:06:02</text></g></g><g class="series serie-0 color-0"><path d="M12.416517 146.499331 L13.658168 146.499378 14.899820 146.499425 16.141472 146.499472 17.383124 146.499519 18.624775 146.499566 19.866427 146.499613 21.108079 146.499660 22.349730 146.499707 23.591382 146.499754 24.833034 146.499801 26.074685 146.499848 27.316337 146.499895 28.557989 146.499942 29.799640 146.499988 31.041292 146.500035 32.282944 146.500082 33.524595 146.500128 34.766247 146.500175 36.007899 146.500221 37.249550 146.500267 38.491202 146.500313 39.732854 146.500359 40.974505 146.500405 42.216157 146.500451 43.457809 146.500497 44.699461 146.500543 45.941112 146.500588 47.182764 146.500634 48.424416 146.500679 49.666067 146.500724 50.907719 146.500769 52.149371 146.500814 53.391022 146.500859 54.632674 146.500903 55.874326 146.500948 57.115977 146.500992 58.357629 146.501036 59.599281 146.501080 60.840932 146.501124 62.082584 146.501167 63.324236 146.501211 64.565887 146.501254 65.807539 146.501297 67.049191 146.501340 68.290842 146.501383 69.532494 146.501425 70.774146 146.501467 72.015798 146.501509 73.257449 146.501551 74.499101 146.501593 75.740753 146.501634 76.982404 146.501675 78.224056 146.501716 79.465708 146.501757 80.707359 146.501797 81.949011 146.501837 83.190663 146.501877 84.432314 146.501917 85.673966 146.501956 86.915618 146.501995 88.157269 146.502034 89.398921 146.502073 90.640573 146.502111 91.882224 146.502149 93.123876 146.502187 94.365528 146.502224 95.607179 146.502261 96.848831 146.502298 98.090483 146.502335 99.332135 146.502371 100.573786 146.502407 101.815438 146.502442 103.057090 146.502477 104.298741 146.502512 105.540393 146.502547 106.782045 146.502581 108.023696 146.502615 109.265348 146.502649 110.507000 146.502682 111.748651 146.502715 112.990303 146.502747 114.231955 146.502779 115.473606 146.502811 116.715258 146.502842 117.956910 146.502873 119.198561 146.502904 120.440213 146.502934 121.681865 146.502964 122.923516 146.502993 124.165168 146.503022 125.406820 146.503051 126.648472 146.503079 127.890123 146.503107 129.131775 146.503134 130.373427 146.503161 131.615078 146.503187 132.856730 146.503213 134.098382 146.503239 135.340033 146.503264 136.581685 146.503289 137.823337 146.503313 139.064988 146.503337 140.306640 146.503360 141.548292 146.503383 142.789943 146.503406 144.031595 146.503428 145.273247 146.503449 146.514898 146.503470 147.756550 146.503491 148.998202 146.503511 150.239853 146.503530 151.481505 146.503549 152.723157 146.503568 153.964809 146.503586 155.206460 146.503603 156.448112 146.503620 157.689764 146.503636 158.931415 146.503652 160.173067 146.503668 161.414719 146.503683 162.656370 146.503697 163.898022 146.503711 165.139674 146.503724 166.381325 146.503736 167.622977 146.503748 168.864629 146.503760 170.106280 146.503771 171.347932 146.503781 172.589584 146.503791 173.831235 146.503800 175.072887 146.503809 176.314539 146.503817 177.556190 146.503824 178.797842 146.503831 180.039494 146.503837 181.281146 146.503843 182.522797 146.503848 183.764449 146.503852 185.006101 146.503856 186.247752 146.503859 187.489404 146.503861 188.731056 146.503863 189.972707 146.503864 191.214359 146.503865 192.456011 146.503865 193.697662 146.503864 194.939314 146.503863 196.180966 146.503861 197.422617 146.503858 198.664269 146.503854 199.905921 146.503850 201.147572 146.503846 202.389224 146.503840 203.630876 146.503834 204.872527 146.503827 206.114179 146.503819 207.355831 146.503811 208.597483 146.503802 209.839134 146.503793 211.080786 146.503782 212.322438 146.503771 213.564089 146.503759 214.805741 146.503746 216.047393 146.503733 217.289044 146.503719 218.530696 146.503704 219.772348 146.503689 221.013999 146.503672 222.255651 146.503655 223.497303 146.503637 224.738954 146.503619 225.980606 146.503599 227.222258 146.503579 228.463909 146.503558 229.705561 146.503536 230.947213 146.503514 232.188864 146.503491 233.430516 146.503466 234.672168 146.503441 235.913820 146.503416 237.155471 146.503389 238.397123 146.503362 239.638775 146.503334 240.880426 146.503304 242.122078 146.503275 243.363730 146.503244 244.605381 146.503212 245.847033 146.503180 247.088685 146.503147 248.330336 146.503113 249.571988 146.503078 250.813640 146.503042 252.055291 146.503005 253.296943 146.502968 254.538595 146.502929 255.780246 146.502890 257.021898 146.502850 258.263550 146.502808 259.505201 146.502766 260.746853 146.502724 261.988505 146.502680 263.230157 146.502635 264.471808 146.502589 265.713460 146.502543 266.955112 146.502495 268.196763 146.502447 269.438415 146.502398 270.680067 146.502347 271.921718 146.502296 273.163370 146.502244 274.405022 146.502191 275.646673 146.502137 276.888325 146.502082 278.129977 146.502026 279.371628 146.501969 280.613280 146.501911 281.854932 146.501852 283.096583 146.501792 284.338235 146.501731 285.579887 146.501670 286.821538 146.501607 288.063190 146.501543 289.304842 146.501478 290.546494 146.501412 291.788145 146.501345 293.029797 146.501277 294.271449 146.501208 295.513100 146.501139 296.754752 146.501068 297.996404 146.500996 299.238055 146.500922 300.479707 146.500848 301.721359 146.500773 302.963010 146.500697 304.204662 146.500620 305.446314 146.500541 306.687965 146.500462 307.929617 146.500382 309.171269 146.500300 310.412920 146.500217 311.654572 146.500134 312.896224 146.500049 314.137875 146.499963 315.379527 146.499876 316.621179 146.499788 317.862831 146.499699 319.104482 146.499609 320.346134 146.499517 321.587786 146.499425 322.829437 146.499331 324.071089 146.499236 325.312741 146.499140 326.554392 146.499043 327.796044 146.498945 329.037696 146.498846 330.279347 146.498745 331.520999 146.498644 332.762651 146.498541 334.004302 146.498437 335.245954 146.498333 336.487606 146.498227 337.729257 146.498120 338.970909 146.498012 340.212561 146.497903 341.454212 146.497793 342.695864 146.497681 343.937516 146.497569 345.179168 146.497456 346.420819 146.497341 347.662471 146.497226 348.904123 146.497109 350.145774 146.496992 351.387426 146.496873 352.629078 146.496754 353.870729 146.496633 355.112381 146.496512 356.354033 146.496389 357.595684 146.496265 358.837336 146.496141 360.078988 146.496015 361.320639 146.495888 362.562291 146.495761 363.803943 146.495632 365.045594 146.495503 366.287246 146.495372 367.528898 146.495240 368.770549 146.495108 370.012201 146.494975 371.253853 146.494840 372.495505 146.494705 373.737156 146.494568 374.978808 146.494431 376.220460 146.494293 377.462111 146.494154 378.703763 146.494014 379.945415 146.493873 381.187066 146.493731 382.428718 146.493588 383.670370 146.493444 384.912021 146.493299 386.153673 146.493154 387.395325 146.493007 388.636976 146.492860 389.878628 146.492712 391.120280 146.492562 392.361931 146.492412 393.603583 146.492262 394.845235 146.492110 396.086886 146.491957 397.328538 146.491804 398.570190 146.491649 399.811842 146.491494 401.053493 146.491338 402.295145 146.491181 403.536797 146.491023 404.778448 146.490865 406.020100 146.490705 407.261752 146.490545 408.503403 146.490384 409.745055 146.490222 410.986707 146.490059 412.228358 146.489896 413.470010 146.489731 414.711662 146.489566 415.953313 146.489400 417.194965 146.489233 418.436617 146.489066 419.678268 146.488898 420.919920 146.488728 422.161572 146.488559 423.403223 146.488388 424.644875 146.488217 425.886527 146.488044 427.128179 146.487872 428.369830 146.487698 429.611482 146.487523 430.853134 146.487348 432.094785 146.487172 433.336437 146.486996 434.578089 146.486819 435.819740 146.486640 437.061392 146.486462 438.303044 146.486282 439.544695 146.486102 440.786347 146.485921 442.027999 146.485739 443.269650 146.485557 444.511302 146.485374 445.752954 146.485190 446.994605 146.485006 448.236257 146.484821 449.477909 146.484635 450.719560 146.484449 451.961212 146.484262 453.202864 146.484074 454.444516 146.483886 455.686167 146.483697 456.927819 146.483507 458.169471 146.483317 459.411122 146.483126 460.652774 146.482934 461.894426 146.482742 463.136077 146.482549 464.377729 146.482356 465.619381 146.482162 466.861032 146.481967 468.102684 146.481772 469.344336 146.481576 470.585987 146.481379 471.827639 146.481182 473.069291 146.480984 474.310942 146.480786 475.552594 146.480587 476.794246 146.480388 478.035897 146.480188 479.277549 146.479987 480.519201 146.479786 481.760853 146.479585 483.002504 146.479382 484.244156 146.479180 485.485808 146.478976 486.727459 146.478772 487.969111 146.478568 489.210763 146.478363 490.452414 146.478158 491.694066 146.477952 492.935718 146.477745 494.177369 146.477538 495.419021 146.477331 496.660673 146.477123 497.902324 146.476914 499.143976 146.476705 500.385628 146.476496 501.627279 146.476286 502.868931 146.476076 504.110583 146.475865 505.352234 146.475653 506.593886 146.475441 507.835538 146.475229 509.077190 146.475016 510.318841 146.474803 511.560493 146.474590 512.802145 146.474375 514.043796 146.474161 515.285448 146.473946 516.527100 146.473730 517.768751 146.473515 519.010403 146.473298 520.252055 146.473082 521.493706 146.472865 522.735358 146.472647 523.977010 146.472429 525.218661 146.472211 526.460313 146.471992 527.701965 146.471773 528.943616 146.471554 530.185268 146.471334 531.426920 146.471114 532.668571 146.470893 533.910223 146.470672 535.151875 146.470451 536.393527 146.470229 537.635178 146.470007 538.876830 146.469785 540.118482 146.469562 541.360133 146.469339 542.601785 146.469116 543.843437 146.468892 545.085088 146.468668 546.326740 146.468444 547.568392 146.468219 548.810043 146.467994 550.051695 146.467769 551.293347 146.467543 552.534998 146.467317 553.776650 146.467091 555.018302 146.466864 556.259953 146.466638 557.501605 146.466411 558.743257 146.466183 559.984908 146.465956 561.226560 146.465728 562.468212 146.465500 563.709864 146.465271 564.951515 146.465043 566.193167 146.464814 567.434819 146.464585 568.676470 146.464355 569.918122 146.464126 571.159774 146.463896 572.401425 146.463666 573.643077 146.463435 574.884729 146.463205 576.126380 146.462974 577.368032 146.462743 578.609684 146.462512 579.851335 146.462281 581.092987 146.462049 582.334639 146.461818 583.576290 146.461586 584.817942 146.461354 586.059594 146.461121 587.301245 146.460889 588.542897 146.460656 589.784549 146.460424 591.026201 146.460191 592.267852 146.459958 593.509504 146.459724 594.751156 146.459491 595.992807 146.459258 597.234459 146.459024 598.476111 146.458790 599.717762 146.458556 600.959414 146.458322 602.201066 146.458088 603.442717 146.457854 604.684369 146.457620 605.926021 146.457385 607.167672 146.457151 608.409324 146.456916 609.650976 146.456681 610.892627 146.456446 612.134279 146.456211 613.375931 146.455976 614.617582 146.455741 615.859234 146.455506 617.100886 146.455271 618.342538 146.455036 619.584189 146.454800 620.825841 146.454565 622.067493 146.454330 623.309144 146.454094 624.550796 146.453859 625.792448 146.453623 627.034099 146.453388 628.275751 146.453152 629.517403 146.452917 630.759054 146.452681 632.000706 146.452445 633.242358 146.452210" class="line reactive nofill"/></g></g><g class="titles"><text x="400.0" y="26" class="title plot_title">主题: 路由器内存利用率</text></g><g transform="translate(120, 46)" class="plot overlay"><g class="series serie-0 color-0"><g class="dots"><circle cx="12.416516817366263" cy="146.49933084903546" r="2.5" class="dot reactive tooltip-trigger"/><desc class="value">70.91</desc><desc class="x ">12.416516817366263</desc><desc class="y ">146.49933084903546</desc><desc class="x_label">15:04:03</desc></g><g class="dots"><circle cx="322.82943725152285" cy="146.49933084903546" r="2.5" class="dot reactive tooltip-trigger"/><desc class="value">70.91</desc><desc class="x ">322.82943725152285</desc><desc class="y ">146.49933084903546</desc><desc class="x_label">15:05:02</desc></g><g class="dots"><circle cx="633.2423576856794" cy="146.45220980341014" r="2.5" class="dot reactive tooltip-trigger"/><desc class="value">70.92</desc><desc class="x left">633.2423576856794</desc><desc class="y left">146.45220980341014</desc><desc class="x_label">15:06:02</desc></g></g></g><g transform="translate(120, 46)" class="plot text-overlay"><g class="series serie-0 color-0"/></g><g transform="translate(120, 46)" class="plot tooltip-overlay"><g transform="translate(0 0)" style="opacity: 0" class="tooltip"><rect rx="0" ry="0" width="0" height="0" class="tooltip-box"/><g class="text"/></g></g><g transform="translate(10, 56)" class="legends"><g id="activate-serie-0" class="legend reactive activate-serie"><rect x="0.0" y="1.0" width="12" height="12" class="color-0 reactive"/><text x="17.0" y="11.2">MEM利用率</text></g></g><g transform="translate(776, 56)" class="legends"/></g></svg>