<?xml version='1.0' encoding='utf-8'?>
<svg xmlns="http://www.w3.org/2000/svg" xmlns:xlink="http://www.w3.org/1999/xlink" id="chart-128515e2-7618-404a-92b1-43de6feaf0cd" class="pygal-chart" viewBox="0 0 800 600"><!--Generated with pygal 3.0.5 (lxml) ©Kozea 2012-2016 on 2025-03-17--><!--http://pygal.org--><!--http://github.com/Kozea/pygal--><defs><style type="text/css">#chart-128515e2-7618-404a-92b1-43de6feaf0cd{-webkit-user-select:none;-webkit-font-smoothing:antialiased;font-family:Consolas,"Liberation Mono",Menlo,Courier,monospace}#chart-128515e2-7618-404a-92b1-43de6feaf0cd .title{font-family:Noto Sans CJK SC;font-size:16px}#chart-128515e2-7618-404a-92b1-43de6feaf0cd .legends .legend text{font-family:Noto Sans CJK SC;font-size:14px}#chart-128515e2-7618-404a-92b1-43de6feaf0cd .axis text{font-family:Noto Sans CJK SC;font-size:10px}#chart-128515e2-7618-404a-92b1-43de6feaf0cd .axis text.major{font-family:Noto Sans CJK SC;font-size:10px}#chart-128515e2-7618-404a-92b1-43de6feaf0cd .text-overlay text.value{font-family:Noto Sans CJK SC;font-size:16px}#chart-128515e2-7618-404a-92b1-43de6feaf0cd .text-overlay text.label{font-family:Consolas,"Liberation Mono",Menlo,Courier,monospace;font-size:10px}#chart-128515e2-7618-404a-92b1-43de6feaf0cd .tooltip{font-family:Consolas,"Liberation Mono",Menlo,Courier,monospace;font-size:14px}#chart-128515e2-7618-404a-92b1-43de6feaf0cd text.no_data{font-family:Consolas,"Liberation Mono",Menlo,Courier,monospace;font-size:64px}
#chart-128515e2-7618-404a-92b1-43de6feaf0cd{background-color:rgba(249,249,249,1)}#chart-128515e2-7618-404a-92b1-43de6feaf0cd path,#chart-128515e2-7618-404a-92b1-43de6feaf0cd line,#chart-128515e2-7618-404a-92b1-43de6feaf0cd rect,#chart-128515e2-7618-404a-92b1-43de6feaf0cd circle{-webkit-transition:150ms;-moz-transition:150ms;transition:150ms}#chart-128515e2-7618-404a-92b1-43de6feaf0cd .graph &gt; .background{fill:rgba(249,249,249,1)}#chart-128515e2-7618-404a-92b1-43de6feaf0cd .plot &gt; .background{fill:rgba(255,255,255,1)}#chart-128515e2-7618-404a-92b1-43de6feaf0cd .graph{fill:rgba(0,0,0,.87)}#chart-128515e2-7618-404a-92b1-43de6feaf0cd text.no_data{fill:rgba(0,0,0,1)}#chart-128515e2-7618-404a-92b1-43de6feaf0cd .title{fill:rgba(0,0,0,1)}#chart-128515e2-7618-404a-92b1-43de6feaf0cd .legends .legend text{fill:rgba(0,0,0,.87)}#chart-128515e2-7618-404a-92b1-43de6feaf0cd .legends .legend:hover text{fill:rgba(0,0,0,1)}#chart-128515e2-7618-404a-92b1-43de6feaf0cd .axis .line{stroke:rgba(0,0,0,1)}#chart-128515e2-7618-404a-92b1-43de6feaf0cd .axis .guide.line{stroke:rgba(0,0,0,.54)}#chart-128515e2-7618-404a-92b1-43de6feaf0cd .axis .major.line{stroke:rgba(0,0,0,.87)}#chart-128515e2-7618-404a-92b1-43de6feaf0cd .axis text.major{fill:rgba(0,0,0,1)}#chart-128515e2-7618-404a-92b1-43de6feaf0cd .axis.y .guides:hover .guide.line,#chart-128515e2-7618-404a-92b1-43de6feaf0cd .line-graph .axis.x .guides:hover .guide.line,#chart-128515e2-7618-404a-92b1-43de6feaf0cd .stackedline-graph .axis.x .guides:hover .guide.line,#chart-128515e2-7618-404a-92b1-43de6feaf0cd .xy-graph .axis.x .guides:hover .guide.line{stroke:rgba(0,0,0,1)}#chart-128515e2-7618-404a-92b1-43de6feaf0cd .axis .guides:hover text{fill:rgba(0,0,0,1)}#chart-128515e2-7618-404a-92b1-43de6feaf0cd .reactive{fill-opacity:.7;stroke-opacity:.8;stroke-width:1}#chart-128515e2-7618-404a-92b1-43de6feaf0cd .ci{stroke:rgba(0,0,0,.87)}#chart-128515e2-7618-404a-92b1-43de6feaf0cd .reactive.active,#chart-128515e2-7618-404a-92b1-43de6feaf0cd .active .reactive{fill-opacity:.8;stroke-opacity:.9;stroke-width:4}#chart-128515e2-7618-404a-92b1-43de6feaf0cd .ci .reactive.active{stroke-width:1.5}#chart-128515e2-7618-404a-92b1-43de6feaf0cd .series text{fill:rgba(0,0,0,1)}#chart-128515e2-7618-404a-92b1-43de6feaf0cd .tooltip rect{fill:rgba(255,255,255,1);stroke:rgba(0,0,0,1);-webkit-transition:opacity 150ms;-moz-transition:opacity 150ms;transition:opacity 150ms}#chart-128515e2-7618-404a-92b1-43de6feaf0cd .tooltip .label{fill:rgba(0,0,0,.87)}#chart-128515e2-7618-404a-92b1-43de6feaf0cd .tooltip .label{fill:rgba(0,0,0,.87)}#chart-128515e2-7618-404a-92b1-43de6feaf0cd .tooltip .legend{font-size:.8em;fill:rgba(0,0,0,.54)}#chart-128515e2-7618-404a-92b1-43de6feaf0cd .tooltip .x_label{font-size:.6em;fill:rgba(0,0,0,1)}#chart-128515e2-7618-404a-92b1-43de6feaf0cd .tooltip .xlink{font-size:.5em;text-decoration:underline}#chart-128515e2-7618-404a-92b1-43de6feaf0cd .tooltip .value{font-size:1.5em}#chart-128515e2-7618-404a-92b1-43de6feaf0cd .bound{font-size:.5em}#chart-128515e2-7618-404a-92b1-43de6feaf0cd .max-value{font-size:.75em;fill:rgba(0,0,0,.54)}#chart-128515e2-7618-404a-92b1-43de6feaf0cd .map-element{fill:rgba(255,255,255,1);stroke:rgba(0,0,0,.54) !important}#chart-128515e2-7618-404a-92b1-43de6feaf0cd .map-element .reactive{fill-opacity:inherit;stroke-opacity:inherit}#chart-128515e2-7618-404a-92b1-43de6feaf0cd .color-0,#chart-128515e2-7618-404a-92b1-43de6feaf0cd .color-0 a:visited{stroke:#F44336;fill:#F44336}#chart-128515e2-7618-404a-92b1-43de6feaf0cd .text-overlay .color-0 text{fill:black}
#chart-128515e2-7618-404a-92b1-43de6feaf0cd text.no_data{text-anchor:middle}#chart-128515e2-7618-404a-92b1-43de6feaf0cd .guide.line{fill:none}#chart-128515e2-7618-404a-92b1-43de6feaf0cd .centered{text-anchor:middle}#chart-128515e2-7618-404a-92b1-43de6feaf0cd .title{text-anchor:middle}#chart-128515e2-7618-404a-92b1-43de6feaf0cd .legends .legend text{fill-opacity:1}#chart-128515e2-7618-404a-92b1-43de6feaf0cd .axis.x text{text-anchor:middle}#chart-128515e2-7618-404a-92b1-43de6feaf0cd .axis.x:not(.web) text[transform]{text-anchor:start}#chart-128515e2-7618-404a-92b1-43de6feaf0cd .axis.x:not(.web) text[transform].backwards{text-anchor:end}#chart-128515e2-7618-404a-92b1-43de6feaf0cd .axis.y text{text-anchor:end}#chart-128515e2-7618-404a-92b1-43de6feaf0cd .axis.y text[transform].backwards{text-anchor:start}#chart-128515e2-7618-404a-92b1-43de6feaf0cd .axis.y2 text{text-anchor:start}#chart-128515e2-7618-404a-92b1-43de6feaf0cd .axis.y2 text[transform].backwards{text-anchor:end}#chart-128515e2-7618-404a-92b1-43de6feaf0cd .axis .guide.line{stroke-dasharray:4,4;stroke:black}#chart-128515e2-7618-404a-92b1-43de6feaf0cd .axis .major.guide.line{stroke-dasharray:6,6;stroke:black}#chart-128515e2-7618-404a-92b1-43de6feaf0cd .horizontal .axis.y .guide.line,#chart-128515e2-7618-404a-92b1-43de6feaf0cd .horizontal .axis.y2 .guide.line,#chart-128515e2-7618-404a-92b1-43de6feaf0cd .vertical .axis.x .guide.line{opacity:0}#chart-128515e2-7618-404a-92b1-43de6feaf0cd .horizontal .axis.always_show .guide.line,#chart-128515e2-7618-404a-92b1-43de6feaf0cd .vertical .axis.always_show .guide.line{opacity:1 !important}#chart-128515e2-7618-404a-92b1-43de6feaf0cd .axis.y .guides:hover .guide.line,#chart-128515e2-7618-404a-92b1-43de6feaf0cd .axis.y2 .guides:hover .guide.line,#chart-128515e2-7618-404a-92b1-43de6feaf0cd .axis.x .guides:hover .guide.line{opacity:1}#chart-128515e2-7618-404a-92b1-43de6feaf0cd .axis .guides:hover text{opacity:1}#chart-128515e2-7618-404a-92b1-43de6feaf0cd .nofill{fill:none}#chart-128515e2-7618-404a-92b1-43de6feaf0cd .subtle-fill{fill-opacity:.2}#chart-128515e2-7618-404a-92b1-43de6feaf0cd .dot{stroke-width:1px;fill-opacity:1;stroke-opacity:1}#chart-128515e2-7618-404a-92b1-43de6feaf0cd .dot.active{stroke-width:5px}#chart-128515e2-7618-404a-92b1-43de6feaf0cd .dot.negative{fill:transparent}#chart-128515e2-7618-404a-92b1-43de6feaf0cd text,#chart-128515e2-7618-404a-92b1-43de6feaf0cd tspan{stroke:none !important}#chart-128515e2-7618-404a-92b1-43de6feaf0cd .series text.active{opacity:1}#chart-128515e2-7618-404a-92b1-43de6feaf0cd .tooltip rect{fill-opacity:.95;stroke-width:.5}#chart-128515e2-7618-404a-92b1-43de6feaf0cd .tooltip text{fill-opacity:1}#chart-128515e2-7618-404a-92b1-43de6feaf0cd .showable{visibility:hidden}#chart-128515e2-7618-404a-92b1-43de6feaf0cd .showable.shown{visibility:visible}#chart-128515e2-7618-404a-92b1-43de6feaf0cd .gauge-background{fill:rgba(229,229,229,1);stroke:none}#chart-128515e2-7618-404a-92b1-43de6feaf0cd .bg-lines{stroke:rgba(249,249,249,1);stroke-width:2px}</style><script type="text/javascript">window.pygal = window.pygal || {};window.pygal.config = window.pygal.config || {};window.pygal.config['128515e2-7618-404a-92b1-43de6feaf0cd'] = {"allow_interruptions": false, "box_mode": "extremes", "classes": ["pygal-chart"], "css": ["file://style.css", "file://graph.css"], "defs": [], "disable_xml_declaration": false, "dots_size": 2.5, "dynamic_print_values": false, "explicit_size": false, "fill": false, "force_uri_protocol": "https", "formatter": null, "half_pie": false, "height": 600, "include_x_axis": false, "inner_radius": 0, "interpolate": "cubic", "interpolation_parameters": {}, "interpolation_precision": 250, "inverse_y_axis": false, "js": ["//kozea.github.io/pygal.js/2.0.x/pygal-tooltips.min.js"], "legend_at_bottom": false, "legend_at_bottom_columns": null, "legend_box_size": 12, "logarithmic": false, "margin": 20, "margin_bottom": null, "margin_left": null, "margin_right": null, "margin_top": null, "max_scale": 16, "min_scale": 4, "missing_value_fill_truncation": "x", "no_data_text": "No data", "no_prefix": false, "order_min": null, "pretty_print": false, "print_labels": false, "print_values": false, "print_values_position": "center", "print_zeroes": true, "range": [0, 100], "rounded_bars": null, "secondary_range": null, "show_dots": true, "show_legend": true, "show_minor_x_labels": true, "show_minor_y_labels": true, "show_only_major_dots": false, "show_x_guides": false, "show_x_labels": true, "show_y_guides": true, "show_y_labels": true, "spacing": 10, "stack_from_top": false, "strict": false, "stroke": true, "stroke_style": null, "style": {"background": "rgba(249, 249, 249, 1)", "ci_colors": [], "colors": ["#F44336", "#3F51B5", "#009688", "#FFC107", "#FF5722", "#9C27B0", "#03A9F4", "#8BC34A", "#FF9800", "#E91E63", "#2196F3", "#4CAF50", "#FFEB3B", "#673AB7", "#00BCD4", "#CDDC39", "#9E9E9E", "#607D8B"], "dot_opacity": "1", "font_family": "Consolas, \"Liberation Mono\", Menlo, Courier, monospace", "foreground": "rgba(0, 0, 0, .87)", "foreground_strong": "rgba(0, 0, 0, 1)", "foreground_subtle": "rgba(0, 0, 0, .54)", "guide_stroke_color": "black", "guide_stroke_dasharray": "4,4", "label_font_family": "Noto Sans CJK SC", "label_font_size": 10, "legend_font_family": "Noto Sans CJK SC", "legend_font_size": 14, "major_guide_stroke_color": "black", "major_guide_stroke_dasharray": "6,6", "major_label_font_family": "Noto Sans CJK SC", "major_label_font_size": 10, "no_data_font_family": "Consolas, \"Liberation Mono\", Menlo, Courier, monospace", "no_data_font_size": 64, "opacity": ".7", "opacity_hover": ".8", "plot_background": "rgba(255, 255, 255, 1)", "stroke_opacity": ".8", "stroke_opacity_hover": ".9", "stroke_width": "1", "stroke_width_hover": "4", "title_font_family": "Noto Sans CJK SC", "title_font_size": 16, "tooltip_font_family": "Consolas, \"Liberation Mono\", Menlo, Courier, monospace", "tooltip_font_size": 14, "transition": "150ms", "value_background": "rgba(229, 229, 229, 1)", "value_colors": [], "value_font_family": "Noto Sans CJK SC", "value_font_size": 16, "value_label_font_family": "Consolas, \"Liberation Mono\", Menlo, Courier, monospace", "value_label_font_size": 10}, "title": "\u4e3b\u9898: \u8def\u7531\u5668CPU\u5229\u7528\u7387", "tooltip_border_radius": 0, "tooltip_fancy_mode": true, "truncate_label": null, "truncate_legend": null, "width": 800, "x_label_rotation": 45, "x_labels": ["15:04:03", "15:05:02", "15:06:02"], "x_labels_major": null, "x_labels_major_count": null, "x_labels_major_every": null, "x_title": null, "xrange": null, "y_label_rotation": 0, "y_labels": null, "y_labels_major": null, "y_labels_major_count": null, "y_labels_major_every": null, "y_title": null, "zero": 0, "legends": ["CPU\u5229\u7528\u7387"]}</script><script type="text/javascript" xlink:href="https://kozea.github.io/pygal.js/2.0.x/pygal-tooltips.min.js"/></defs><title>主题: 路由器CPU利用率</title><g class="graph line-graph vertical"><rect x="0" y="0" width="800" height="600" class="background"/><g transform="translate(120, 46)" class="plot"><rect x="0" y="0" width="645.6588745030457" height="490.05887450304573" class="background"/><g class="axis y always_show"><g class="guides"><path d="M0.000000 480.634665 h645.658875" class="axis major line"/><text x="-5" y="484.1346653779872" class="major">0</text><title>0</title></g><g class="guides"><path d="M0.000000 433.513620 h645.658875" class="guide line"/><text x="-5" y="437.0136197526943" class="">10</text><title>10</title></g><g class="guides"><path d="M0.000000 386.392574 h645.658875" class="guide line"/><text x="-5" y="389.8925741274014" class="">20</text><title>20</title></g><g class="guides"><path d="M0.000000 339.271529 h645.658875" class="guide line"/><text x="-5" y="342.7715285021086" class="">30</text><title>30</title></g><g class="guides"><path d="M0.000000 292.150483 h645.658875" class="guide line"/><text x="-5" y="295.6504828768158" class="">40</text><title>40</title></g><g class="guides"><path d="M0.000000 245.029437 h645.658875" class="major guide line"/><text x="-5" y="248.52943725152286" class="major">50</text><title>50</title></g><g class="guides"><path d="M0.000000 197.908392 h645.658875" class="guide line"/><text x="-5" y="201.40839162623" class="">60</text><title>60</title></g><g class="guides"><path d="M0.000000 150.787346 h645.658875" class="guide line"/><text x="-5" y="154.28734600093713" class="">70</text><title>70</title></g><g class="guides"><path d="M0.000000 103.666300 h645.658875" class="guide line"/><text x="-5" y="107.16630037564425" class="">80</text><title>80</title></g><g class="guides"><path d="M0.000000 56.545255 h645.658875" class="guide line"/><text x="-5" y="60.045254750351376" class="">90</text><title>90</title></g><g class="guides"><path d="M0.000000 9.424209 h645.658875" class="major guide line"/><text x="-5" y="12.92420912505861" class="major">100</text><title>100</title></g></g><g class="axis x"><g class="guides"><path d="M12.416517 0.000000 v490.058875" class="line"/><text x="12.416516817366263" y="505.05887450304573" class="" transform="rotate(45 12.416517 505.058875)">15:04:03</text></g><g class="guides"><path d="M322.829437 0.000000 v490.058875" class="guide line"/><text x="322.82943725152285" y="505.05887450304573" class="" transform="rotate(45 322.829437 505.058875)">15:05:02</text></g><g class="guides"><path d="M633.242358 0.000000 v490.058875" class="guide line"/><text x="633.2423576856794" y="505.05887450304573" class="" transform="rotate(45 633.242358 505.058875)">15:06:02</text></g></g><g class="series serie-0 color-0"><path d="M12.416517 475.922561 L13.658168 475.800047 14.899820 475.677535 16.141472 475.555029 17.383124 475.432531 18.624775 475.310044 19.866427 475.187570 21.108079 475.065113 22.349730 474.942675 23.591382 474.820258 24.833034 474.697866 26.074685 474.575501 27.316337 474.453166 28.557989 474.330863 29.799640 474.208596 31.041292 474.086367 32.282944 473.964178 33.524595 473.842033 34.766247 473.719934 36.007899 473.597884 37.249550 473.475885 38.491202 473.353941 39.732854 473.232054 40.974505 473.110226 42.216157 472.988461 43.457809 472.866761 44.699461 472.745129 45.941112 472.623567 47.182764 472.502079 48.424416 472.380667 49.666067 472.259333 50.907719 472.138081 52.149371 472.016913 53.391022 471.895832 54.632674 471.774840 55.874326 471.653941 57.115977 471.533136 58.357629 471.412430 59.599281 471.291824 60.840932 471.171320 62.082584 471.050923 63.324236 470.930635 64.565887 470.810457 65.807539 470.690394 67.049191 470.570447 68.290842 470.450620 69.532494 470.330915 70.774146 470.211335 72.015798 470.091882 73.257449 469.972560 74.499101 469.853370 75.740753 469.734316 76.982404 469.615401 78.224056 469.496627 79.465708 469.377997 80.707359 469.259513 81.949011 469.141179 83.190663 469.022996 84.432314 468.904968 85.673966 468.787098 86.915618 468.669388 88.157269 468.551841 89.398921 468.434459 90.640573 468.317245 91.882224 468.200203 93.123876 468.083334 94.365528 467.966642 95.607179 467.850128 96.848831 467.733797 98.090483 467.617650 99.332135 467.501691 100.573786 467.385921 101.815438 467.270344 103.057090 467.154963 104.298741 467.039780 105.540393 466.924797 106.782045 466.810018 108.023696 466.695446 109.265348 466.581082 110.507000 466.466930 111.748651 466.352993 112.990303 466.239272 114.231955 466.125772 115.473606 466.012494 116.715258 465.899441 117.956910 465.786617 119.198561 465.674023 120.440213 465.561662 121.681865 465.449538 122.923516 465.337652 124.165168 465.226008 125.406820 465.114608 126.648472 465.003456 127.890123 464.892553 129.131775 464.781902 130.373427 464.671506 131.615078 464.561369 132.856730 464.451492 134.098382 464.341878 135.340033 464.232530 136.581685 464.123451 137.823337 464.014643 139.064988 463.906110 140.306640 463.797853 141.548292 463.689876 142.789943 463.582181 144.031595 463.474771 145.273247 463.367649 146.514898 463.260817 147.756550 463.154278 148.998202 463.048036 150.239853 462.942091 151.481505 462.836448 152.723157 462.731109 153.964809 462.626077 155.206460 462.521354 156.448112 462.416944 157.689764 462.312848 158.931415 462.209069 160.173067 462.105611 161.414719 462.002476 162.656370 461.899667 163.898022 461.797186 165.139674 461.695036 166.381325 461.593220 167.622977 461.491741 168.864629 461.390600 170.106280 461.289802 171.347932 461.189349 172.589584 461.089243 173.831235 460.989487 175.072887 460.890084 176.314539 460.791036 177.556190 460.692347 178.797842 460.594019 180.039494 460.496054 181.281146 460.398456 182.522797 460.301227 183.764449 460.204370 185.006101 460.107887 186.247752 460.011782 187.489404 459.916056 188.731056 459.820714 189.972707 459.725756 191.214359 459.631187 192.456011 459.537009 193.697662 459.443224 194.939314 459.349836 196.180966 459.256846 197.422617 459.164258 198.664269 459.072075 199.905921 458.980299 201.147572 458.888932 202.389224 458.797978 203.630876 458.707440 204.872527 458.617319 206.114179 458.527619 207.355831 458.438343 208.597483 458.349492 209.839134 458.261071 211.080786 458.173081 212.322438 458.085525 213.564089 457.998406 214.805741 457.911727 216.047393 457.825491 217.289044 457.739699 218.530696 457.654355 219.772348 457.569462 221.013999 457.485022 222.255651 457.401039 223.497303 457.317513 224.738954 457.234450 225.980606 457.151850 227.222258 457.069717 228.463909 456.988054 229.705561 456.906863 230.947213 456.826147 232.188864 456.745909 233.430516 456.666151 234.672168 456.586876 235.913820 456.508087 237.155471 456.429786 238.397123 456.351977 239.638775 456.274662 240.880426 456.197844 242.122078 456.121525 243.363730 456.045708 244.605381 455.970396 245.847033 455.895591 247.088685 455.821297 248.330336 455.747515 249.571988 455.674250 250.813640 455.601503 252.055291 455.529277 253.296943 455.457574 254.538595 455.386399 255.780246 455.315752 257.021898 455.245638 258.263550 455.176058 259.505201 455.107016 260.746853 455.038513 261.988505 454.970554 263.230157 454.903140 264.471808 454.836275 265.713460 454.769960 266.955112 454.704199 268.196763 454.638994 269.438415 454.574349 270.680067 454.510266 271.921718 454.446746 273.163370 454.383795 274.405022 454.321413 275.646673 454.259604 276.888325 454.198370 278.129977 454.137715 279.371628 454.077640 280.613280 454.018149 281.854932 453.959244 283.096583 453.900928 284.338235 453.843204 285.579887 453.786074 286.821538 453.729541 288.063190 453.673608 289.304842 453.618278 290.546494 453.563553 291.788145 453.509435 293.029797 453.455929 294.271449 453.403036 295.513100 453.350759 296.754752 453.299101 297.996404 453.248064 299.238055 453.197652 300.479707 453.147867 301.721359 453.098711 302.963010 453.050188 304.204662 453.002300 305.446314 452.955050 306.687965 452.908440 307.929617 452.862473 309.171269 452.817153 310.412920 452.772481 311.654572 452.728461 312.896224 452.685094 314.137875 452.642385 315.379527 452.600335 316.621179 452.558947 317.862831 452.518225 319.104482 452.478170 320.346134 452.438785 321.587786 452.400074 322.829437 452.362038 324.071089 452.324680 325.312741 452.287998 326.554392 452.251989 327.796044 452.216650 329.037696 452.181979 330.279347 452.147973 331.520999 452.114629 332.762651 452.081945 334.004302 452.049918 335.245954 452.018544 336.487606 451.987823 337.729257 451.957749 338.970909 451.928322 340.212561 451.899538 341.454212 451.871395 342.695864 451.843889 343.937516 451.817019 345.179168 451.790781 346.420819 451.765172 347.662471 451.740191 348.904123 451.715834 350.145774 451.692098 351.387426 451.668982 352.629078 451.646481 353.870729 451.624594 355.112381 451.603317 356.354033 451.582649 357.595684 451.562585 358.837336 451.543124 360.078988 451.524264 361.320639 451.506000 362.562291 451.488330 363.803943 451.471253 365.045594 451.454764 366.287246 451.438861 367.528898 451.423542 368.770549 451.408804 370.012201 451.394644 371.253853 451.381060 372.495505 451.368048 373.737156 451.355606 374.978808 451.343731 376.220460 451.332421 377.462111 451.321673 378.703763 451.311484 379.945415 451.301851 381.187066 451.292772 382.428718 451.284244 383.670370 451.276264 384.912021 451.268830 386.153673 451.261938 387.395325 451.255587 388.636976 451.249773 389.878628 451.244494 391.120280 451.239747 392.361931 451.235529 393.603583 451.231837 394.845235 451.228670 396.086886 451.226023 397.328538 451.223895 398.570190 451.222283 399.811842 451.221183 401.053493 451.220594 402.295145 451.220513 403.536797 451.220936 404.778448 451.221861 406.020100 451.223286 407.261752 451.225208 408.503403 451.227623 409.745055 451.230530 410.986707 451.233925 412.228358 451.237806 413.470010 451.242170 414.711662 451.247015 415.953313 451.252337 417.194965 451.258135 418.436617 451.264404 419.678268 451.271143 420.919920 451.278349 422.161572 451.286020 423.403223 451.294151 424.644875 451.302741 425.886527 451.311787 427.128179 451.321287 428.369830 451.331237 429.611482 451.341635 430.853134 451.352478 432.094785 451.363763 433.336437 451.375488 434.578089 451.387650 435.819740 451.400246 437.061392 451.413274 438.303044 451.426731 439.544695 451.440614 440.786347 451.454920 442.027999 451.469647 443.269650 451.484792 444.511302 451.500352 445.752954 451.516325 446.994605 451.532708 448.236257 451.549497 449.477909 451.566691 450.719560 451.584287 451.961212 451.602282 453.202864 451.620673 454.444516 451.639458 455.686167 451.658633 456.927819 451.678197 458.169471 451.698146 459.411122 451.718478 460.652774 451.739189 461.894426 451.760278 463.136077 451.781742 464.377729 451.803577 465.619381 451.825782 466.861032 451.848353 468.102684 451.871287 469.344336 451.894583 470.585987 451.918237 471.827639 451.942246 473.069291 451.966608 474.310942 451.991321 475.552594 452.016380 476.794246 452.041785 478.035897 452.067531 479.277549 452.093617 480.519201 452.120040 481.760853 452.146796 483.002504 452.173883 484.244156 452.201299 485.485808 452.229040 486.727459 452.257104 487.969111 452.285489 489.210763 452.314191 490.452414 452.343208 491.694066 452.372538 492.935718 452.402176 494.177369 452.432122 495.419021 452.462371 496.660673 452.492921 497.902324 452.523771 499.143976 452.554916 500.385628 452.586354 501.627279 452.618082 502.868931 452.650098 504.110583 452.682400 505.352234 452.714983 506.593886 452.747846 507.835538 452.780986 509.077190 452.814400 510.318841 452.848085 511.560493 452.882040 512.802145 452.916260 514.043796 452.950743 515.285448 452.985487 516.527100 453.020489 517.768751 453.055746 519.010403 453.091255 520.252055 453.127014 521.493706 453.163020 522.735358 453.199271 523.977010 453.235763 525.218661 453.272493 526.460313 453.309460 527.701965 453.346661 528.943616 453.384092 530.185268 453.421751 531.426920 453.459635 532.668571 453.497742 533.910223 453.536068 535.151875 453.574612 536.393527 453.613370 537.635178 453.652340 538.876830 453.691519 540.118482 453.730904 541.360133 453.770493 542.601785 453.810283 543.843437 453.850271 545.085088 453.890454 546.326740 453.930830 547.568392 453.971395 548.810043 454.012149 550.051695 454.053086 551.293347 454.094206 552.534998 454.135505 553.776650 454.176980 555.018302 454.218628 556.259953 454.260448 557.501605 454.302436 558.743257 454.344590 559.984908 454.386907 561.226560 454.429383 562.468212 454.472017 563.709864 454.514806 564.951515 454.557747 566.193167 454.600837 567.434819 454.644073 568.676470 454.687454 569.918122 454.730976 571.159774 454.774636 572.401425 454.818431 573.643077 454.862360 574.884729 454.906419 576.126380 454.950606 577.368032 454.994917 578.609684 455.039351 579.851335 455.083904 581.092987 455.128573 582.334639 455.173357 583.576290 455.218252 584.817942 455.263255 586.059594 455.308365 587.301245 455.353577 588.542897 455.398890 589.784549 455.444301 591.026201 455.489807 592.267852 455.535405 593.509504 455.581092 594.751156 455.626866 595.992807 455.672725 597.234459 455.718665 598.476111 455.764684 599.717762 455.810778 600.959414 455.856946 602.201066 455.903185 603.442717 455.949491 604.684369 455.995862 605.926021 456.042296 607.167672 456.088790 608.409324 456.135341 609.650976 456.181945 610.892627 456.228602 612.134279 456.275307 613.375931 456.322059 614.617582 456.368854 615.859234 456.415689 617.100886 456.462563 618.342538 456.509472 619.584189 456.556413 620.825841 456.603384 622.067493 456.650383 623.309144 456.697406 624.550796 456.744450 625.792448 456.791514 627.034099 456.838594 628.275751 456.885687 629.517403 456.932792 630.759054 456.979904 632.000706 457.027022 633.242358 457.074143" class="line reactive nofill"/></g></g><g class="titles"><text x="400.0" y="26" class="title plot_title">主题: 路由器CPU利用率</text></g><g transform="translate(120, 46)" class="plot overlay"><g class="series serie-0 color-0"><g class="dots"><circle cx="12.416516817366263" cy="475.92256081545787" r="2.5" class="dot reactive tooltip-trigger"/><desc class="value">1</desc><desc class="x top">12.416516817366263</desc><desc class="y top">475.92256081545787</desc><desc class="x_label">15:04:03</desc></g><g class="dots"><circle cx="322.82943725152285" cy="452.36203800281146" r="2.5" class="dot reactive tooltip-trigger"/><desc class="value">6</desc><desc class="x top">322.82943725152285</desc><desc class="y top">452.36203800281146</desc><desc class="x_label">15:05:02</desc></g><g class="dots"><circle cx="633.2423576856794" cy="457.0741425653407" r="2.5" class="dot reactive tooltip-trigger"/><desc class="value">5</desc><desc class="x left top">633.2423576856794</desc><desc class="y left top">457.0741425653407</desc><desc class="x_label">15:06:02</desc></g></g></g><g transform="translate(120, 46)" class="plot text-overlay"><g class="series serie-0 color-0"/></g><g transform="translate(120, 46)" class="plot tooltip-overlay"><g transform="translate(0 0)" style="opacity: 0" class="tooltip"><rect rx="0" ry="0" width="0" height="0" class="tooltip-box"/><g class="text"/></g></g><g transform="translate(10, 56)" class="legends"><g id="activate-serie-0" class="legend reactive activate-serie"><rect x="0.0" y="1.0" width="12" height="12" class="color-0 reactive"/><text x="17.0" y="11.2">CPU利用率</text></g></g><g transform="translate(776, 56)" class="legends"/></g></svg>